<mxfile host="app.diagrams.net" agent="Mozilla/5.0 (Windows NT 10.0; Win64; x64) AppleWebKit/537.36 (KHTML, like Gecko) Chrome/134.0.0.0 Safari/537.36 Edg/134.0.0.0" version="26.1.1">
  <diagram name="第 1 页" id="tigARBqPQhpsDbetu7K7">
    <mxGraphModel dx="1413" dy="734" grid="1" gridSize="10" guides="1" tooltips="1" connect="1" arrows="1" fold="1" page="1" pageScale="1" pageWidth="827" pageHeight="1169" math="0" shadow="0">
      <root>
        <mxCell id="0" />
        <mxCell id="1" parent="0" />
        <mxCell id="3U5G_h0e8z2Mmn-cmGu5-1" value="" style="shape=actor;whiteSpace=wrap;html=1;" parent="1" vertex="1">
          <mxGeometry x="160" y="560" width="40" height="60" as="geometry" />
        </mxCell>
        <mxCell id="3U5G_h0e8z2Mmn-cmGu5-2" value="" style="shape=actor;whiteSpace=wrap;html=1;" parent="1" vertex="1">
          <mxGeometry x="480" y="560" width="40" height="60" as="geometry" />
        </mxCell>
        <mxCell id="3U5G_h0e8z2Mmn-cmGu5-14" value="1.2.1" style="swimlane;fontStyle=0;childLayout=stackLayout;horizontal=1;startSize=26;fillColor=none;horizontalStack=0;resizeParent=1;resizeParentMax=0;resizeLast=0;collapsible=1;marginBottom=0;html=1;" parent="1" vertex="1">
          <mxGeometry x="274" y="410" width="140" height="52" as="geometry">
            <mxRectangle x="274" y="410" width="70" height="30" as="alternateBounds" />
          </mxGeometry>
        </mxCell>
        <mxCell id="3U5G_h0e8z2Mmn-cmGu5-16" value="后台管理系统" style="text;strokeColor=none;fillColor=none;align=center;verticalAlign=top;spacingLeft=4;spacingRight=4;overflow=hidden;rotatable=0;points=[[0,0.5],[1,0.5]];portConstraint=eastwest;whiteSpace=wrap;html=1;" parent="3U5G_h0e8z2Mmn-cmGu5-14" vertex="1">
          <mxGeometry y="26" width="140" height="26" as="geometry" />
        </mxCell>
        <mxCell id="3U5G_h0e8z2Mmn-cmGu5-19" value="" style="edgeStyle=elbowEdgeStyle;elbow=vertical;endArrow=classic;html=1;curved=0;rounded=0;endSize=8;startSize=8;" parent="1" edge="1">
          <mxGeometry width="50" height="50" relative="1" as="geometry">
            <mxPoint x="180" y="560" as="sourcePoint" />
            <mxPoint x="300" y="470" as="targetPoint" />
            <Array as="points">
              <mxPoint x="240" y="530" />
            </Array>
          </mxGeometry>
        </mxCell>
        <mxCell id="3U5G_h0e8z2Mmn-cmGu5-21" value="" style="edgeStyle=segmentEdgeStyle;endArrow=classic;html=1;curved=0;rounded=0;endSize=8;startSize=8;exitX=0.321;exitY=0.949;exitDx=0;exitDy=0;exitPerimeter=0;" parent="1" edge="1">
          <mxGeometry width="50" height="50" relative="1" as="geometry">
            <mxPoint x="318.94000000000005" y="470.674" as="sourcePoint" />
            <mxPoint x="210" y="620" as="targetPoint" />
            <Array as="points">
              <mxPoint x="320" y="471" />
              <mxPoint x="320" y="620" />
            </Array>
          </mxGeometry>
        </mxCell>
        <mxCell id="3U5G_h0e8z2Mmn-cmGu5-22" value="" style="edgeStyle=segmentEdgeStyle;endArrow=classic;html=1;curved=0;rounded=0;endSize=8;startSize=8;entryX=0.25;entryY=1;entryDx=0;entryDy=0;exitX=0.598;exitY=1.154;exitDx=0;exitDy=0;exitPerimeter=0;" parent="1" edge="1">
          <mxGeometry width="50" height="50" relative="1" as="geometry">
            <mxPoint x="360" y="471.0039999999999" as="sourcePoint" />
            <mxPoint x="471.28" y="615" as="targetPoint" />
            <Array as="points">
              <mxPoint x="360" y="615" />
            </Array>
          </mxGeometry>
        </mxCell>
        <mxCell id="3U5G_h0e8z2Mmn-cmGu5-23" value="" style="edgeStyle=elbowEdgeStyle;elbow=vertical;endArrow=classic;html=1;curved=0;rounded=0;endSize=8;startSize=8;exitX=0.5;exitY=0;exitDx=0;exitDy=0;" parent="1" source="3U5G_h0e8z2Mmn-cmGu5-2" edge="1">
          <mxGeometry width="50" height="50" relative="1" as="geometry">
            <mxPoint x="480" y="560" as="sourcePoint" />
            <mxPoint x="394" y="470" as="targetPoint" />
            <Array as="points">
              <mxPoint x="374" y="530" />
            </Array>
          </mxGeometry>
        </mxCell>
        <mxCell id="3U5G_h0e8z2Mmn-cmGu5-24" value="事务" style="text;html=1;align=center;verticalAlign=middle;whiteSpace=wrap;rounded=0;" parent="1" vertex="1">
          <mxGeometry x="214" y="530" width="60" height="30" as="geometry" />
        </mxCell>
        <mxCell id="3U5G_h0e8z2Mmn-cmGu5-25" value="事务" style="text;html=1;align=center;verticalAlign=middle;resizable=0;points=[];autosize=1;strokeColor=none;fillColor=none;" parent="1" vertex="1">
          <mxGeometry x="215" y="628" width="50" height="30" as="geometry" />
        </mxCell>
        <mxCell id="3U5G_h0e8z2Mmn-cmGu5-26" value="事务" style="text;html=1;align=center;verticalAlign=middle;resizable=0;points=[];autosize=1;strokeColor=none;fillColor=none;" parent="1" vertex="1">
          <mxGeometry x="405" y="528" width="50" height="30" as="geometry" />
        </mxCell>
        <mxCell id="3U5G_h0e8z2Mmn-cmGu5-27" value="事务" style="text;html=1;align=center;verticalAlign=middle;resizable=0;points=[];autosize=1;strokeColor=none;fillColor=none;" parent="1" vertex="1">
          <mxGeometry x="405" y="628" width="50" height="30" as="geometry" />
        </mxCell>
        <mxCell id="3U5G_h0e8z2Mmn-cmGu5-46" value="" style="swimlane;shape=mxgraph.bootstrap.anchor;strokeColor=#666666;fillColor=#ffffff;fontColor=#666666;fontStyle=0;childLayout=stackLayout;horizontal=0;startSize=0;horizontalStack=1;resizeParent=1;resizeParentMax=0;resizeLast=0;collapsible=0;marginBottom=0;whiteSpace=wrap;html=1;" parent="1" vertex="1">
          <mxGeometry x="30" y="350" width="155" height="30" as="geometry" />
        </mxCell>
        <mxCell id="3U5G_h0e8z2Mmn-cmGu5-47" value="&lt;font style=&quot;font-size: 12px;&quot;&gt;4&lt;/font&gt;" style="text;strokeColor=#008CFF;align=center;verticalAlign=middle;spacingLeft=10;spacingRight=10;overflow=hidden;points=[[0,0.5],[1,0.5]];portConstraint=eastwest;rotatable=0;whiteSpace=wrap;html=1;shape=mxgraph.mockup.leftButton;rSize=10;fillColor=#008CFF;fontColor=#ffffff;fontSize=17;fontStyle=1;" parent="3U5G_h0e8z2Mmn-cmGu5-46" vertex="1">
          <mxGeometry width="30" height="30" as="geometry" />
        </mxCell>
        <mxCell id="3U5G_h0e8z2Mmn-cmGu5-50" value="&lt;font style=&quot;font-size: 12px;&quot;&gt;客房订单信息&lt;/font&gt;" style="text;strokeColor=inherit;align=center;verticalAlign=middle;spacingLeft=10;spacingRight=10;overflow=hidden;points=[[0,0.5],[1,0.5]];portConstraint=eastwest;rotatable=0;whiteSpace=wrap;html=1;shape=mxgraph.mockup.rightButton;rSize=10;fillColor=inherit;fontColor=inherit;fontSize=17;fontStyle=1;" parent="3U5G_h0e8z2Mmn-cmGu5-46" vertex="1">
          <mxGeometry x="30" width="125" height="30" as="geometry" />
        </mxCell>
        <mxCell id="3U5G_h0e8z2Mmn-cmGu5-52" value="" style="swimlane;shape=mxgraph.bootstrap.anchor;strokeColor=#666666;fillColor=#ffffff;fontColor=#666666;fontStyle=0;childLayout=stackLayout;horizontal=0;startSize=0;horizontalStack=1;resizeParent=1;resizeParentMax=0;resizeLast=0;collapsible=0;marginBottom=0;whiteSpace=wrap;html=1;" parent="1" vertex="1">
          <mxGeometry x="30" y="470" width="155" height="30" as="geometry" />
        </mxCell>
        <mxCell id="3U5G_h0e8z2Mmn-cmGu5-53" value="&lt;font style=&quot;font-size: 12px;&quot;&gt;6&lt;/font&gt;" style="text;strokeColor=#008CFF;align=center;verticalAlign=middle;spacingLeft=10;spacingRight=10;overflow=hidden;points=[[0,0.5],[1,0.5]];portConstraint=eastwest;rotatable=0;whiteSpace=wrap;html=1;shape=mxgraph.mockup.leftButton;rSize=10;fillColor=#008CFF;fontColor=#ffffff;fontSize=17;fontStyle=1;" parent="3U5G_h0e8z2Mmn-cmGu5-52" vertex="1">
          <mxGeometry width="30" height="30" as="geometry" />
        </mxCell>
        <mxCell id="3U5G_h0e8z2Mmn-cmGu5-54" value="&lt;font style=&quot;font-size: 12px;&quot;&gt;物资采购信息数据&lt;/font&gt;" style="text;strokeColor=inherit;align=center;verticalAlign=middle;spacingLeft=10;spacingRight=10;overflow=hidden;points=[[0,0.5],[1,0.5]];portConstraint=eastwest;rotatable=0;whiteSpace=wrap;html=1;shape=mxgraph.mockup.rightButton;rSize=10;fillColor=inherit;fontColor=inherit;fontSize=17;fontStyle=1;" parent="3U5G_h0e8z2Mmn-cmGu5-52" vertex="1">
          <mxGeometry x="30" width="125" height="30" as="geometry" />
        </mxCell>
        <mxCell id="3U5G_h0e8z2Mmn-cmGu5-55" value="" style="swimlane;shape=mxgraph.bootstrap.anchor;strokeColor=#666666;fillColor=#ffffff;fontColor=#666666;fontStyle=0;childLayout=stackLayout;horizontal=0;startSize=0;horizontalStack=1;resizeParent=1;resizeParentMax=0;resizeLast=0;collapsible=0;marginBottom=0;whiteSpace=wrap;html=1;" parent="1" vertex="1">
          <mxGeometry x="30" y="410" width="155" height="30" as="geometry" />
        </mxCell>
        <mxCell id="3U5G_h0e8z2Mmn-cmGu5-56" value="&lt;font style=&quot;font-size: 12px;&quot;&gt;5&lt;/font&gt;" style="text;strokeColor=#008CFF;align=center;verticalAlign=middle;spacingLeft=10;spacingRight=10;overflow=hidden;points=[[0,0.5],[1,0.5]];portConstraint=eastwest;rotatable=0;whiteSpace=wrap;html=1;shape=mxgraph.mockup.leftButton;rSize=10;fillColor=#008CFF;fontColor=#ffffff;fontSize=17;fontStyle=1;" parent="3U5G_h0e8z2Mmn-cmGu5-55" vertex="1">
          <mxGeometry width="30" height="30" as="geometry" />
        </mxCell>
        <mxCell id="3U5G_h0e8z2Mmn-cmGu5-57" value="&lt;font style=&quot;font-size: 12px;&quot;&gt;检修清洁信息&lt;/font&gt;" style="text;strokeColor=inherit;align=center;verticalAlign=middle;spacingLeft=10;spacingRight=10;overflow=hidden;points=[[0,0.5],[1,0.5]];portConstraint=eastwest;rotatable=0;whiteSpace=wrap;html=1;shape=mxgraph.mockup.rightButton;rSize=10;fillColor=inherit;fontColor=inherit;fontSize=17;fontStyle=1;" parent="3U5G_h0e8z2Mmn-cmGu5-55" vertex="1">
          <mxGeometry x="30" width="125" height="30" as="geometry" />
        </mxCell>
        <mxCell id="3U5G_h0e8z2Mmn-cmGu5-61" value="" style="swimlane;shape=mxgraph.bootstrap.anchor;strokeColor=#666666;fillColor=#ffffff;fontColor=#666666;fontStyle=0;childLayout=stackLayout;horizontal=0;startSize=0;horizontalStack=1;resizeParent=1;resizeParentMax=0;resizeLast=0;collapsible=0;marginBottom=0;whiteSpace=wrap;html=1;" parent="1" vertex="1">
          <mxGeometry x="500" y="480" width="155" height="30" as="geometry" />
        </mxCell>
        <mxCell id="3U5G_h0e8z2Mmn-cmGu5-62" value="&lt;font style=&quot;font-size: 12px;&quot;&gt;8&lt;/font&gt;" style="text;strokeColor=#008CFF;align=center;verticalAlign=middle;spacingLeft=10;spacingRight=10;overflow=hidden;points=[[0,0.5],[1,0.5]];portConstraint=eastwest;rotatable=0;whiteSpace=wrap;html=1;shape=mxgraph.mockup.leftButton;rSize=10;fillColor=#008CFF;fontColor=#ffffff;fontSize=17;fontStyle=1;" parent="3U5G_h0e8z2Mmn-cmGu5-61" vertex="1">
          <mxGeometry width="30" height="30" as="geometry" />
        </mxCell>
        <mxCell id="3U5G_h0e8z2Mmn-cmGu5-63" value="&lt;font style=&quot;font-size: 12px;&quot;&gt;排班信息&lt;/font&gt;" style="text;strokeColor=inherit;align=center;verticalAlign=middle;spacingLeft=10;spacingRight=10;overflow=hidden;points=[[0,0.5],[1,0.5]];portConstraint=eastwest;rotatable=0;whiteSpace=wrap;html=1;shape=mxgraph.mockup.rightButton;rSize=10;fillColor=inherit;fontColor=inherit;fontSize=17;fontStyle=1;" parent="3U5G_h0e8z2Mmn-cmGu5-61" vertex="1">
          <mxGeometry x="30" width="125" height="30" as="geometry" />
        </mxCell>
        <mxCell id="3U5G_h0e8z2Mmn-cmGu5-64" value="" style="swimlane;shape=mxgraph.bootstrap.anchor;strokeColor=#666666;fillColor=#ffffff;fontColor=#666666;fontStyle=0;childLayout=stackLayout;horizontal=0;startSize=0;horizontalStack=1;resizeParent=1;resizeParentMax=0;resizeLast=0;collapsible=0;marginBottom=0;whiteSpace=wrap;html=1;" parent="1" vertex="1">
          <mxGeometry x="500" y="360" width="155" height="30" as="geometry" />
        </mxCell>
        <mxCell id="3U5G_h0e8z2Mmn-cmGu5-65" value="&lt;font style=&quot;font-size: 12px;&quot;&gt;7&lt;/font&gt;" style="text;strokeColor=#008CFF;align=center;verticalAlign=middle;spacingLeft=10;spacingRight=10;overflow=hidden;points=[[0,0.5],[1,0.5]];portConstraint=eastwest;rotatable=0;whiteSpace=wrap;html=1;shape=mxgraph.mockup.leftButton;rSize=10;fillColor=#008CFF;fontColor=#ffffff;fontSize=17;fontStyle=1;" parent="3U5G_h0e8z2Mmn-cmGu5-64" vertex="1">
          <mxGeometry width="30" height="30" as="geometry" />
        </mxCell>
        <mxCell id="3U5G_h0e8z2Mmn-cmGu5-66" value="&lt;font style=&quot;font-size: 12px;&quot;&gt;员工信息&lt;/font&gt;" style="text;strokeColor=inherit;align=center;verticalAlign=middle;spacingLeft=10;spacingRight=10;overflow=hidden;points=[[0,0.5],[1,0.5]];portConstraint=eastwest;rotatable=0;whiteSpace=wrap;html=1;shape=mxgraph.mockup.rightButton;rSize=10;fillColor=inherit;fontColor=inherit;fontSize=17;fontStyle=1;" parent="3U5G_h0e8z2Mmn-cmGu5-64" vertex="1">
          <mxGeometry x="30" width="125" height="30" as="geometry" />
        </mxCell>
        <mxCell id="3U5G_h0e8z2Mmn-cmGu5-68" value="" style="edgeStyle=elbowEdgeStyle;elbow=horizontal;endArrow=classic;html=1;curved=0;rounded=0;endSize=8;startSize=8;entryX=0.188;entryY=-0.026;entryDx=0;entryDy=0;entryPerimeter=0;" parent="1" target="3U5G_h0e8z2Mmn-cmGu5-14" edge="1">
          <mxGeometry width="50" height="50" relative="1" as="geometry">
            <mxPoint x="190" y="360" as="sourcePoint" />
            <mxPoint x="300" y="400" as="targetPoint" />
            <Array as="points">
              <mxPoint x="300" y="370" />
            </Array>
          </mxGeometry>
        </mxCell>
        <mxCell id="3U5G_h0e8z2Mmn-cmGu5-69" value="" style="edgeStyle=segmentEdgeStyle;endArrow=classic;html=1;curved=0;rounded=0;endSize=8;startSize=8;entryX=0.931;entryY=1.128;entryDx=0;entryDy=0;entryPerimeter=0;" parent="1" target="3U5G_h0e8z2Mmn-cmGu5-16" edge="1">
          <mxGeometry width="50" height="50" relative="1" as="geometry">
            <mxPoint x="500" y="496" as="sourcePoint" />
            <mxPoint x="443.67999999999995" y="462.0039999999999" as="targetPoint" />
          </mxGeometry>
        </mxCell>
        <mxCell id="3U5G_h0e8z2Mmn-cmGu5-70" value="" style="edgeStyle=elbowEdgeStyle;elbow=horizontal;endArrow=classic;html=1;curved=0;rounded=0;endSize=8;startSize=8;exitX=0.098;exitY=-0.013;exitDx=0;exitDy=0;exitPerimeter=0;" parent="1" source="3U5G_h0e8z2Mmn-cmGu5-83" edge="1">
          <mxGeometry width="50" height="50" relative="1" as="geometry">
            <mxPoint x="290" y="400" as="sourcePoint" />
            <mxPoint x="190" y="370" as="targetPoint" />
            <Array as="points" />
          </mxGeometry>
        </mxCell>
        <mxCell id="3U5G_h0e8z2Mmn-cmGu5-71" value="" style="endArrow=classic;html=1;rounded=0;" parent="1" edge="1">
          <mxGeometry width="50" height="50" relative="1" as="geometry">
            <mxPoint x="185" y="420" as="sourcePoint" />
            <mxPoint x="265" y="420" as="targetPoint" />
          </mxGeometry>
        </mxCell>
        <mxCell id="3U5G_h0e8z2Mmn-cmGu5-73" value="" style="endArrow=classic;html=1;rounded=0;" parent="1" edge="1">
          <mxGeometry width="50" height="50" relative="1" as="geometry">
            <mxPoint x="274" y="430" as="sourcePoint" />
            <mxPoint x="184" y="430" as="targetPoint" />
          </mxGeometry>
        </mxCell>
        <mxCell id="3U5G_h0e8z2Mmn-cmGu5-74" value="" style="edgeStyle=elbowEdgeStyle;elbow=horizontal;endArrow=classic;html=1;curved=0;rounded=0;endSize=8;startSize=8;exitX=-0.017;exitY=0.846;exitDx=0;exitDy=0;exitPerimeter=0;" parent="1" edge="1">
          <mxGeometry width="50" height="50" relative="1" as="geometry">
            <mxPoint x="282.62" y="461.9960000000001" as="sourcePoint" />
            <mxPoint x="185" y="484" as="targetPoint" />
            <Array as="points">
              <mxPoint x="285" y="484" />
            </Array>
          </mxGeometry>
        </mxCell>
        <mxCell id="3U5G_h0e8z2Mmn-cmGu5-76" value="" style="edgeStyle=segmentEdgeStyle;endArrow=classic;html=1;curved=0;rounded=0;endSize=8;startSize=8;entryX=0.117;entryY=1;entryDx=0;entryDy=0;entryPerimeter=0;" parent="1" target="3U5G_h0e8z2Mmn-cmGu5-16" edge="1">
          <mxGeometry width="50" height="50" relative="1" as="geometry">
            <mxPoint x="185" y="498" as="sourcePoint" />
            <mxPoint x="290" y="470" as="targetPoint" />
            <Array as="points">
              <mxPoint x="185" y="490" />
              <mxPoint x="290" y="490" />
            </Array>
          </mxGeometry>
        </mxCell>
        <mxCell id="3U5G_h0e8z2Mmn-cmGu5-77" value="" style="edgeStyle=segmentEdgeStyle;endArrow=classic;html=1;curved=0;rounded=0;endSize=8;startSize=8;entryX=0.836;entryY=-0.051;entryDx=0;entryDy=0;entryPerimeter=0;exitX=0.033;exitY=0.022;exitDx=0;exitDy=0;exitPerimeter=0;" parent="1" source="3U5G_h0e8z2Mmn-cmGu5-65" target="3U5G_h0e8z2Mmn-cmGu5-14" edge="1">
          <mxGeometry width="50" height="50" relative="1" as="geometry">
            <mxPoint x="490" y="370" as="sourcePoint" />
            <mxPoint x="390" y="400" as="targetPoint" />
            <Array as="points">
              <mxPoint x="391" y="371" />
            </Array>
          </mxGeometry>
        </mxCell>
        <mxCell id="3U5G_h0e8z2Mmn-cmGu5-78" value="" style="edgeStyle=segmentEdgeStyle;endArrow=classic;html=1;curved=0;rounded=0;endSize=8;startSize=8;" parent="1" target="3U5G_h0e8z2Mmn-cmGu5-65" edge="1">
          <mxGeometry width="50" height="50" relative="1" as="geometry">
            <mxPoint x="405" y="410" as="sourcePoint" />
            <mxPoint x="455" y="360" as="targetPoint" />
            <Array as="points">
              <mxPoint x="405" y="380" />
            </Array>
          </mxGeometry>
        </mxCell>
        <mxCell id="3U5G_h0e8z2Mmn-cmGu5-81" value="" style="edgeStyle=segmentEdgeStyle;endArrow=classic;html=1;curved=0;rounded=0;endSize=8;startSize=8;" parent="1" edge="1">
          <mxGeometry width="50" height="50" relative="1" as="geometry">
            <mxPoint x="414" y="470" as="sourcePoint" />
            <mxPoint x="504" y="480" as="targetPoint" />
            <Array as="points">
              <mxPoint x="414" y="450" />
              <mxPoint x="414" y="480" />
            </Array>
          </mxGeometry>
        </mxCell>
        <mxCell id="3U5G_h0e8z2Mmn-cmGu5-82" value="客房订单信息查询" style="text;html=1;align=center;verticalAlign=middle;resizable=0;points=[];autosize=1;strokeColor=none;fillColor=none;" parent="1" vertex="1">
          <mxGeometry x="170" y="328" width="120" height="30" as="geometry" />
        </mxCell>
        <mxCell id="3U5G_h0e8z2Mmn-cmGu5-84" value="" style="edgeStyle=elbowEdgeStyle;elbow=horizontal;endArrow=classic;html=1;curved=0;rounded=0;endSize=8;startSize=8;exitX=0.098;exitY=-0.013;exitDx=0;exitDy=0;exitPerimeter=0;" parent="1" source="3U5G_h0e8z2Mmn-cmGu5-14" target="3U5G_h0e8z2Mmn-cmGu5-83" edge="1">
          <mxGeometry width="50" height="50" relative="1" as="geometry">
            <mxPoint x="288" y="409" as="sourcePoint" />
            <mxPoint x="190" y="370" as="targetPoint" />
            <Array as="points">
              <mxPoint x="290" y="370" />
            </Array>
          </mxGeometry>
        </mxCell>
        <mxCell id="3U5G_h0e8z2Mmn-cmGu5-83" value="客房订单信息更新" style="text;html=1;align=center;verticalAlign=middle;resizable=0;points=[];autosize=1;strokeColor=none;fillColor=none;" parent="1" vertex="1">
          <mxGeometry x="170" y="370" width="120" height="30" as="geometry" />
        </mxCell>
        <mxCell id="3U5G_h0e8z2Mmn-cmGu5-86" value="检修清洁信息查询" style="text;html=1;align=center;verticalAlign=middle;resizable=0;points=[];autosize=1;strokeColor=none;fillColor=none;" parent="1" vertex="1">
          <mxGeometry x="160" y="390" width="120" height="30" as="geometry" />
        </mxCell>
        <mxCell id="3U5G_h0e8z2Mmn-cmGu5-87" value="检修清洁信息更新" style="text;html=1;align=center;verticalAlign=middle;resizable=0;points=[];autosize=1;strokeColor=none;fillColor=none;" parent="1" vertex="1">
          <mxGeometry x="154" y="432" width="120" height="30" as="geometry" />
        </mxCell>
        <mxCell id="3U5G_h0e8z2Mmn-cmGu5-89" value="物资采购信息更新" style="text;html=1;align=center;verticalAlign=middle;resizable=0;points=[];autosize=1;strokeColor=none;fillColor=none;" parent="1" vertex="1">
          <mxGeometry x="170" y="458" width="120" height="30" as="geometry" />
        </mxCell>
        <mxCell id="3U5G_h0e8z2Mmn-cmGu5-90" value="物资采购信息查询" style="text;html=1;align=center;verticalAlign=middle;resizable=0;points=[];autosize=1;strokeColor=none;fillColor=none;" parent="1" vertex="1">
          <mxGeometry x="170" y="498" width="120" height="30" as="geometry" />
        </mxCell>
        <mxCell id="3U5G_h0e8z2Mmn-cmGu5-91" value="员工信息查询" style="text;html=1;align=center;verticalAlign=middle;resizable=0;points=[];autosize=1;strokeColor=none;fillColor=none;" parent="1" vertex="1">
          <mxGeometry x="390" y="330" width="100" height="30" as="geometry" />
        </mxCell>
        <mxCell id="3U5G_h0e8z2Mmn-cmGu5-92" value="员工信息更新" style="text;html=1;align=center;verticalAlign=middle;resizable=0;points=[];autosize=1;strokeColor=none;fillColor=none;" parent="1" vertex="1">
          <mxGeometry x="400" y="388" width="100" height="30" as="geometry" />
        </mxCell>
        <mxCell id="3U5G_h0e8z2Mmn-cmGu5-93" value="排班信息查询" style="text;html=1;align=center;verticalAlign=middle;resizable=0;points=[];autosize=1;strokeColor=none;fillColor=none;" parent="1" vertex="1">
          <mxGeometry x="405" y="498" width="100" height="30" as="geometry" />
        </mxCell>
        <mxCell id="3U5G_h0e8z2Mmn-cmGu5-94" value="排班信息更新" style="text;html=1;align=center;verticalAlign=middle;resizable=0;points=[];autosize=1;strokeColor=none;fillColor=none;" parent="1" vertex="1">
          <mxGeometry x="405" y="450" width="100" height="30" as="geometry" />
        </mxCell>
        <mxCell id="yWDFSvkcgd63o1FORvzj-1" value="员工" style="text;html=1;align=center;verticalAlign=middle;resizable=0;points=[];autosize=1;strokeColor=none;fillColor=none;" vertex="1" parent="1">
          <mxGeometry x="145" y="618" width="50" height="30" as="geometry" />
        </mxCell>
        <mxCell id="yWDFSvkcgd63o1FORvzj-2" value="客户" style="text;html=1;align=center;verticalAlign=middle;resizable=0;points=[];autosize=1;strokeColor=none;fillColor=none;" vertex="1" parent="1">
          <mxGeometry x="475" y="618" width="50" height="30" as="geometry" />
        </mxCell>
      </root>
    </mxGraphModel>
  </diagram>
</mxfile>
